<svg xmlns="http://www.w3.org/2000/svg" viewBox="0 0 304.97 308.87"><defs><style>.cls-1{fill:#6768b9;}.cls-2{fill:#00fce9;}</style></defs><title>logo_2</title><g id="Layer_2" data-name="Layer 2"><g id="Layer_1-2" data-name="Layer 1"><path class="cls-1" d="M255.8,198a29.11,29.11,0,1,0,7.88-57.13c-.46,0-.92,0-1.38,0a104.78,104.78,0,0,0-5.55-20.62,56,56,0,1,0-78.06-65.89,106.53,106.53,0,0,0-31.39-1.46,38.48,38.48,0,1,0-52.2,20.33A105.63,105.63,0,0,0,55.53,133a29.11,29.11,0,1,0-2.87,29.3,105.26,105.26,0,0,0,4.89,27.77A47.75,47.75,0,0,0,124.46,258q2.83,1,5.73,1.74a56,56,0,0,0,104.37-28.05c0-.32,0-.64,0-1A105.65,105.65,0,0,0,255.8,198Z"/><circle class="cls-1" cx="282.65" cy="254.01" r="22.32"/><circle class="cls-1" cx="35.59" cy="61.18" r="13.51"/><circle class="cls-1" cx="30.57" cy="259.84" r="22"/><circle class="cls-1" cx="122.65" cy="295.36" r="13.51"/><path class="cls-2" d="M164.24,195.2q0,12.44,8.46,12.44a28.29,28.29,0,0,0,4-.41,28.53,28.53,0,0,1,4-.42,5.38,5.38,0,0,1,5.31,5.31q0,5.81-7.46,5.81h-1a6.89,6.89,0,0,0-1.16-.17l-8.13-1.16a74.63,74.63,0,0,0-10.45-.66,82.45,82.45,0,0,0-11.11.66l-8.29,1.16a4.8,4.8,0,0,0-1.16.17H136q-7.3,0-7.3-5.81,0-5.31,5.31-5.31a28.59,28.59,0,0,1,4,.42,28.21,28.21,0,0,0,4,.41q8.29,0,8.29-12.44V127.85q0-11.78-12.11-11.78h-5.14q-11.94,0-11.94,11.61,0,4.15.17,5.64l.66,6.14a40.48,40.48,0,0,1,.17,4.15q0,10.45-6.47,10.45-6.14,0-6.14-7.63,0-2.15.33-7.46.5-8,.5-10.12,0-4.14-.28-8.63-.55-8.79-.55-7.46,0-7,6.29-7,2.32,0,10.76.5.82,0,13.58.66H159q3.31,0,17.72-.29,3.15,0,10.76-.44,6.79-.44,10.6-.44,8.28,0,8.28,6.8v.33q0,1.66-.41,6.14t-.91,9.62v1.82q0,2.49.5,7.8.66,7,.66,8.63,0,6.8-6.47,6.8-6.31,0-6.3-8.33,0-3,.5-8.91t.5-8.91q0-11.5-13.1-11.5h-4.64q-6.14,0-8.79,2.57t-3,8.54l-.66,11.61Z"/></g></g></svg>