<svg xmlns="http://www.w3.org/2000/svg" viewBox="0 0 128.02 152.58"><defs><style>.cls-1{fill:#ff00bf;}.cls-2{fill:none;stroke:#fcfc9d;stroke-miterlimit:10;}</style></defs><title>blob-4</title><g id="Layer_2" data-name="Layer 2"><g id="Layer_1-2" data-name="Layer 1"><circle class="cls-1" cx="66.74" cy="85.98" r="48.07"/><circle class="cls-1" cx="59.49" cy="7.25" r="7.25"/><circle class="cls-1" cx="112.75" cy="31.03" r="8.26"/><circle class="cls-1" cx="13.45" cy="99.42" r="13.45"/><circle class="cls-1" cx="115.26" cy="139.81" r="12.76"/><path class="cls-2" d="M66.83,117.3,63,117c-.72,0-.6-.58-.61-1,0-2.81,0-5.62,0-8.44,0-.36.06-.83-.14-1s-.92-.73-1.21-.61a1.71,1.71,0,0,0-1,1.19c-.09,2.34,0,4.69,0,7,0,.78,0,1.56,0,2.54-1.45-.39-2.7-.68-3.92-1.09-.23-.08-.45-.6-.45-.92,0-2,0-4,0-5.95,0-.74-.21-1-1-1-1.15,0-2.31,0-3.46,0a6.6,6.6,0,0,1-5.89-3.59,20.61,20.61,0,0,0-4.13-5.91c-.58-.52-1.19-1-2-1.71a7.69,7.69,0,0,1,1.3-.22,5.83,5.83,0,0,1,4.38,2c.85,1,1.65,2,2.53,3a5.85,5.85,0,0,0,4.64,1.94c.43,0,.87,0,1.3,0,2.18.05,4-.31,5.14-2.63a9.79,9.79,0,0,1,4.45-4l-2.11-.36c-4.18-.74-8.11-2.06-11.29-5a12.67,12.67,0,0,1-2.27-2.6,27.91,27.91,0,0,1-2.4-7.27A16.73,16.73,0,0,1,47.11,72a3.07,3.07,0,0,0,.4-2.62,21.07,21.07,0,0,1-.69-7.6c.27-2.77,1.11-3.45,3.78-2.91a13.62,13.62,0,0,1,6.65,3.4,1.28,1.28,0,0,0,1.53.29,26.34,26.34,0,0,1,18.5,0,1.21,1.21,0,0,0,1.44-.25,14.29,14.29,0,0,1,7.92-3.65A1.68,1.68,0,0,1,88.75,60,11,11,0,0,1,89,66.56,10.08,10.08,0,0,0,90,74.3c1.86,3.69,1.55,7.69.15,11.57a13.19,13.19,0,0,1-.53,1.4A14.23,14.23,0,0,1,88,89.45a23.61,23.61,0,0,1-10,6.14c-1.59.42-3.23.68-5,1a2.5,2.5,0,0,0,.37.33,13,13,0,0,1,6.85,10.84,56.61,56.61,0,0,1,0,6.16,1.16,1.16,0,0,1-.54.89c-1.16.47-2.36.84-3.69,1.3,0-.52-.06-.86-.06-1.2,0-2.49,0-5,0-7.46,0-.85-.22-1.53-1.18-1.63-.76-.08-1.24.58-1.24,1.67,0,2.74,0,5.48,0,8.22,0,.74-.23,1-1,1.08-1.07.08-2.13.25-3.32.4,0-.55-.06-1-.06-1.39,0-3.39,0-6.78,0-10.17,0-.39.08-.88-.11-1.16s-.79-.87-1.17-.84-.84.56-1.06,1a3,3,0,0,0-.06,1.28C66.83,109.62,66.83,113.33,66.83,117.3Z"/></g></g></svg>