<svg xmlns="http://www.w3.org/2000/svg" viewBox="0 0 308.87 308.87"><defs><style>.cls-1{fill:#00fce9;}.cls-2{fill:none;}.cls-3{fill:#6768b9;}</style></defs><title>blob-1_2</title><g id="Layer_2" data-name="Layer 2"><g id="Layer_1-2" data-name="Layer 1"><path class="cls-1" d="M255.8,198a29.11,29.11,0,1,0,7.88-57.13c-.46,0-.92,0-1.38,0a104.78,104.78,0,0,0-5.55-20.62,56,56,0,1,0-78.06-65.89,106.53,106.53,0,0,0-31.39-1.46,38.48,38.48,0,1,0-52.2,20.33A105.63,105.63,0,0,0,55.53,133a29.11,29.11,0,1,0-2.87,29.3,105.26,105.26,0,0,0,4.89,27.77A47.75,47.75,0,0,0,124.46,258q2.83,1,5.73,1.74a56,56,0,0,0,104.37-28.05c0-.32,0-.64,0-1A105.65,105.65,0,0,0,255.8,198Z"/><circle class="cls-1" cx="282.65" cy="254.01" r="22.32"/><circle class="cls-1" cx="35.59" cy="61.18" r="13.51"/><circle class="cls-1" cx="122.65" cy="295.36" r="13.51"/><rect class="cls-2" width="308.87" height="308.87"/><path class="cls-3" d="M201.75,189.09a1.61,1.61,0,0,1-1.11-.44l-31-29.08a1.63,1.63,0,1,1,2.23-2.37l31,29.08a1.63,1.63,0,0,1-1.12,2.81Z"/><path class="cls-3" d="M114.64,189.17a1.63,1.63,0,0,1-1.12-2.81l31.06-29.16a1.63,1.63,0,1,1,2.23,2.37l-31.06,29.16A1.61,1.61,0,0,1,114.64,189.17Z"/><path class="cls-3" d="M200.54,193.9H115.91a8.14,8.14,0,0,1-8.13-8.13V130.31a8.14,8.14,0,0,1,8.13-8.13h84.63a8.14,8.14,0,0,1,8.13,8.13v55.46A8.14,8.14,0,0,1,200.54,193.9Zm-84.63-68.47a4.89,4.89,0,0,0-4.88,4.88v55.46a4.89,4.89,0,0,0,4.88,4.88h84.63a4.89,4.89,0,0,0,4.88-4.88V130.31a4.89,4.89,0,0,0-4.88-4.88Z"/><path class="cls-3" d="M158.23,166.21a9.1,9.1,0,0,1-6-2.15l-41.77-36.44a1.63,1.63,0,1,1,2.14-2.45l41.77,36.44a6.09,6.09,0,0,0,7.67,0l41.72-36.38a1.63,1.63,0,1,1,2.14,2.45L164.2,164.05A9.09,9.09,0,0,1,158.23,166.21Z"/></g></g></svg>