<svg xmlns="http://www.w3.org/2000/svg" viewBox="0 0 141.21 125.54"><defs><style>.cls-1{fill:#6768b9;}.cls-2{fill:none;}.cls-3{fill:#fcfc9d;}</style></defs><title>blob-3_2</title><g id="Layer_2" data-name="Layer 2"><g id="Layer_1-2" data-name="Layer 1"><circle class="cls-1" cx="122.56" cy="14.9" r="13.51"/><circle class="cls-1" cx="55.59" cy="55.83" r="53.46"/><circle class="cls-1" cx="86.76" cy="99.03" r="23.88"/><rect class="cls-2" width="141.21" height="125.54"/><path class="cls-3" d="M86.3,42.82a1.2,1.2,0,0,0-1.1-.27l-1.83.64a12.53,12.53,0,0,0,2.29-3.93.94.94,0,0,0-.18-1.1,1,1,0,0,0-1.1-.18,67,67,0,0,1-6.59,2.56c0,.09-.09,0-.18,0-1.46-.82-5-2.65-7.59-2.65A12.09,12.09,0,0,0,58.31,50.13v.37C48.8,48.67,43.59,45.93,37.91,40L37,39.07l-.55,1.1c-3.11,5.95-.91,11.34,2.65,15a7.47,7.47,0,0,1-3.75-1.65,1.09,1.09,0,0,0-1.28-.09,1.13,1.13,0,0,0-.46,1.19,18,18,0,0,0,8,9.88,7.33,7.33,0,0,1-4.39-1.1,1.29,1.29,0,0,0-1.28.09,1,1,0,0,0-.37,1.19c1.65,4.66,4.85,7.13,10,7.77A22.44,22.44,0,0,1,34,75.38a1.3,1.3,0,0,0-1.19.82,1.27,1.27,0,0,0,.37,1.37c3.29,2.65,10.61,4.21,19.66,4.21,16.1,0,29.27-14.36,29.27-32v-.27a9.06,9.06,0,0,0,4.48-5.58A1.2,1.2,0,0,0,86.3,42.82ZM80.81,48l-.55.18v1.55C80.26,66.42,67.91,80,52.82,80c-8.32,0-13.9-1.37-16.92-2.84a22,22,0,0,0,12.8-4.66L51,70.81H48.25c-5.21,0-8.41-1.46-10.24-4.94a14.4,14.4,0,0,0,5.3.46,17.62,17.62,0,0,1,2.2-.09l.27-1.83a16.52,16.52,0,0,1-9.6-8.32,13.79,13.79,0,0,0,5.67,1h2.84L42.4,55.44c-1.92-1.37-7.59-6.22-4.85-13.17C43.4,48,49,50.68,59,52.51l1.1.18V50.13A10.26,10.26,0,0,1,70,39.71c2.1-.09,5.58,1.83,6.59,2.38a2.1,2.1,0,0,0,1.65.18c1.37-.46,3-1.1,4.85-1.83a14.62,14.62,0,0,1-3.38,3.84,1.1,1.1,0,0,0-.27,1.28.91.91,0,0,0,1.19.46l3.57-1.19A6.46,6.46,0,0,1,80.81,48Z"/></g></g></svg>