<svg xmlns="http://www.w3.org/2000/svg" viewBox="0 0 145.94 145.94"><defs><style>.cls-1{fill:#fcfc9d;}.cls-2{fill:none;}.cls-3{fill:#6768b9;}</style></defs><title>blob-2_2</title><g id="Layer_2" data-name="Layer 2"><g id="Layer_1-2" data-name="Layer 1"><ellipse class="cls-1" cx="76.22" cy="64.34" rx="61.14" ry="67.19" transform="translate(9.03 138.06) rotate(-87.82)"/><circle class="cls-1" cx="19.93" cy="126.01" r="19.93" transform="translate(-107.18 115.08) rotate(-76.1)"/><rect class="cls-2" width="145.94" height="145.94"/><path class="cls-3" d="M58.92,38.57a6.74,6.74,0,0,0-6.8,6.72,6.73,6.73,0,0,0,2,4.79A6.41,6.41,0,0,0,58.84,52H59a6.37,6.37,0,0,0,4.54-1.93,6.73,6.73,0,0,0,2-4.79,6.28,6.28,0,0,0-1.93-4.7A6.36,6.36,0,0,0,58.92,38.57ZM62.36,48.9a4.63,4.63,0,0,1-3.53,1.43,5.1,5.1,0,0,1-3.53-1.43,4.88,4.88,0,0,1-1.51-3.61,5,5,0,0,1,5.12-5,4.9,4.9,0,0,1,3.44,1.43,5,5,0,0,1,1.51,3.61A4.88,4.88,0,0,1,62.36,48.9Z"/><path class="cls-3" d="M62.2,53.69h-6.8A2.46,2.46,0,0,0,53,56.21V85.6a2.58,2.58,0,0,0,2.52,2.52H62.2a2.57,2.57,0,0,0,2.52-2.44V56.21A2.58,2.58,0,0,0,62.2,53.69Zm.84,32a.83.83,0,0,1-.84.76H55.48a.9.9,0,0,1-.84-.84V56.21a.83.83,0,0,1,.76-.84h6.8a.9.9,0,0,1,.84.84Z"/><path class="cls-3" d="M90.75,52.85H89a11.35,11.35,0,0,0-8.4,3.7V55.37a1.81,1.81,0,0,0-1.68-1.68h-8.4a1.73,1.73,0,0,0-1.68,1.6V86.61a1.65,1.65,0,0,0,1.68,1.51h9.24a1.65,1.65,0,0,0,1.68-1.51V68.47a4.74,4.74,0,0,1,4.62-5,5,5,0,0,1,3.53,1.43,4.41,4.41,0,0,1,1.18,3.44V86.44a1.81,1.81,0,0,0,1.68,1.68h8.4a1.81,1.81,0,0,0,1.68-1.68V64.77A11.67,11.67,0,0,0,90.75,52.85Zm10.08,33.51-.08.08H92.51l-.08-18.06a6.18,6.18,0,0,0-1.6-4.62,6.61,6.61,0,0,0-4.7-1.93,6.48,6.48,0,0,0-6.3,6.63v18H70.59V55.37h8.31l.08.08v5.29l2.27-2.27.08-.08a9.58,9.58,0,0,1,7.73-3.86h1.76a10,10,0,0,1,10,10.25Z"/></g></g></svg>