<svg xmlns="http://www.w3.org/2000/svg" viewBox="0 0 1113.17 332.78"><title>signature-bw</title><g id="Layer_2" data-name="Layer 2"><g id="Layer_1-2" data-name="Layer 1"><path d="M91.07,290.63q2.09-8.55,5.32-21.72t7.41-29.48Q108,223.11,113,204.28t10.64-39.16q5.67-20.32,12-41.34t13.17-41.43q-39.08,2.79-73.88,6.28T11.7,97.69q-5.59,1-8.55.44T0,96q-.18-1.48,2.44-3.4t8.37-3.31q10.11-2.44,24.77-4.54t32.79-4.1q18.14-2,39.34-3.92l44.22-4q6.28-18.32,12.91-35.41T178.47,4.88Q180.73,0,184,0a7.09,7.09,0,0,1,5.67,3.14,17.62,17.62,0,0,1,3.23,8.29A17.06,17.06,0,0,1,191,21.81q-5.76,11.51-11.25,23.9t-10.9,25.47q31.92-3,65.77-6.54t67.25-8.37q33.4-4.8,65.16-11.08T426.53,30.7q7.33-2.09,10.38.44A6.62,6.62,0,0,1,439.09,38q-.87,4.36-5.5,8.81T420.77,53q-30.18,6.28-62.28,10.73t-64.72,7.59q-32.62,3.14-65.24,5.41t-63.67,4.36q-11.17,28.61-21.2,58.35T125,197.39q-8.64,28.17-15.87,53.21t-13,43.87a10.55,10.55,0,0,1-2.27,4.27q-1.22,1.13-2.09.52t-1.22-2.88A15,15,0,0,1,91.07,290.63Z"/><path d="M199.4,174.62a65.67,65.67,0,0,1-1.48,7.59q-1.14,4.62-2.44,9.07t-2.36,8.11a23.59,23.59,0,0,0-1,4.71q1.22,0,4-4.1t6.63-10.55q3.83-6.45,8.55-14.57T221,158.57q2.62-4.19,4.8-5.58t3.31-.61q1.13.78.87,3.58t-2.88,7.15q-5.06,8.73-9.86,16.83t-9,14.83q-4.19,6.72-7.59,11.43A47.76,47.76,0,0,1,195,213q-4.19,3.66-7.59,2.18t-3.92-7.41a28.18,28.18,0,0,1-.26-5.32q.08-3.23.44-6.54a96.1,96.1,0,0,1-6.11,11.6,61.83,61.83,0,0,1-7.5,9.94,31.16,31.16,0,0,1-8.2,6.45,10.94,10.94,0,0,1-8.37,1q-3.83-1.22-4.8-7a43.37,43.37,0,0,1,.44-14A109.65,109.65,0,0,1,154,185.7a138.43,138.43,0,0,1,8.55-19.28,100,100,0,0,1,11.6-17.18,55.45,55.45,0,0,1,13.87-12.12,22.12,22.12,0,0,1,8.55-3.23,15.17,15.17,0,0,1,6.63.52,9.46,9.46,0,0,1,6.37,6.8,5,5,0,0,1-.52,3.66,4.73,4.73,0,0,1-3.23,2.18,39.73,39.73,0,0,0-16.22,7.85,77.84,77.84,0,0,0-13.52,13.78,109.32,109.32,0,0,0-10.47,16.48,141,141,0,0,0-7.15,16,63.63,63.63,0,0,0-3.4,12.39q-.69,5,.7,5.5,1.75.52,4.45-1.74A37.52,37.52,0,0,0,166,211a100.23,100.23,0,0,0,6.19-9.51,122.65,122.65,0,0,0,5.67-11,104.29,104.29,0,0,0,4.27-11,43.92,43.92,0,0,0,2.09-9.42,4.91,4.91,0,0,1,2.79-4.45,8.17,8.17,0,0,1,5.5-.7,9.73,9.73,0,0,1,5.15,3.05Q199.92,170.44,199.4,174.62Z"/><path d="M247.19,148.28q-3.14,4.89-6.54,10.82T234,171.31q-3.23,6.28-5.93,12.47t-4.54,11.6A64.33,64.33,0,0,0,221,204.8q-.69,4,.35,5.93l42.57-59.66a28.8,28.8,0,0,1,8-10.64q4.71-3.66,8.46-3.92a5.4,5.4,0,0,1,5.5,2.79q1.74,3.05-.87,9.33-1.22,2.62-3.49,7.94t-5.23,12q-3,6.72-6.37,14.48t-6.72,15.44q-8,18-17.27,39.08,9.24-15.18,18-29.83,3.66-6.28,7.76-12.91l8-13q3.92-6.37,7.59-12.39l6.63-10.9q2.62-4.19,4.8-5.58t3.4-.61q1.22.78.87,3.58a19.82,19.82,0,0,1-3,7.15q-11.17,19-20.5,34.1t-17.18,28q-7.85,12.91-14.48,24.16t-12.73,22.42q-6.11,11.16-11.77,22.94T212,320.28a46.94,46.94,0,0,1-4.88,9.16q-2.26,3-3.84,3.31t-2.18-2.09q-.61-2.36.44-7.24.35-1.92,3.31-10.47t7.5-21.28q4.54-12.74,10.12-28.17t11.34-31.14q5.76-15.7,11.17-30.27t9.42-25.56q-2.44,3.84-5.41,8.2t-6,8.81q-3.05,4.45-6.19,8.81t-6.11,8q-5.06,6.28-8.2,9.94t-5.58,2.27q-3-1.57-4.45-7.5a54.74,54.74,0,0,1-1.22-14.65A106.46,106.46,0,0,1,213.79,181a135.31,135.31,0,0,1,6.89-21.89,45.12,45.12,0,0,1,6.63-11.77,27.34,27.34,0,0,1,7.15-6.45,14.1,14.1,0,0,1,6.54-2.09,8.23,8.23,0,0,1,5,1.22,5.42,5.42,0,0,1,2.36,3.58A6.36,6.36,0,0,1,247.19,148.28Z"/><path d="M354.13,163.11q-5.41,7.85-11.34,15.79t-11.95,15.18q-6,7.24-12,13.52t-11.34,11.16a36.49,36.49,0,0,1-9.07,6.63q-3.84,1.74-6,1t-2.62-3.92a19.22,19.22,0,0,1,1-7.85q1.92-7,5.06-17.44t6.54-21.54q3.4-11.08,6.63-21.11t5.67-16.14q-2.44,4-5.84,10.21t-7.76,14a22.23,22.23,0,0,1-5.23,6.8q-2.79,2.27-4.36,1.92t-1.31-3.49q.26-3.14,3.75-9.25,2.44-4.19,6.72-12T310.17,129q5.23-9.68,10.9-20.24T332,88.44q5.23-9.77,9.59-17.88l6.8-12.65a20.32,20.32,0,0,1,6.37-7.24,13.15,13.15,0,0,1,7.33-2.7A5.79,5.79,0,0,1,367.3,51q1.83,3.05.35,9.59t-7.41,17.1q-5.93,10.56-18.14,25.56-2.27,5.06-5.58,13.43t-7.15,18.58q-3.84,10.2-7.94,21.37t-7.94,21.81q-3.84,10.64-7.15,19.89t-5.41,15.53q9.24-9.77,18-19.36,3.66-4.19,7.68-8.72t7.85-9.16q3.83-4.62,7.33-9.25t6.28-8.81a16.43,16.43,0,0,1,5.06-5.41q2.44-1.39,3.58-.61t.7,3.58A18.87,18.87,0,0,1,354.13,163.11Z"/><path d="M371.92,145a10.24,10.24,0,0,1,6,6.19,25.66,25.66,0,0,1,1.31,10.47,58.31,58.31,0,0,1-2.44,13.08,102.59,102.59,0,0,1-5.23,13.87,97.58,97.58,0,0,1-7.24,13A67.31,67.31,0,0,1,356,212a26.21,26.21,0,0,1-8.64,6,9.64,9.64,0,0,1-8,0q-4.88-2.44-6.11-9.42a44.89,44.89,0,0,1,.44-15.87,93.12,93.12,0,0,1,5.58-18.4,81.39,81.39,0,0,1,9.25-16.83,40.89,40.89,0,0,1,11.43-11.08Q366,142.7,371.92,145Zm-29.48,65.42q2.27,1,5.5-1.57a31.79,31.79,0,0,0,6.28-7.24A71.46,71.46,0,0,0,359.88,191a62.19,62.19,0,0,0,3.84-11.34,27.71,27.71,0,0,0,.7-9.51q-.52-4.1-3.66-5.32-2.62-.87-5.58,1.83a32.14,32.14,0,0,0-5.76,7.41,71.6,71.6,0,0,0-5.06,10.55,80.19,80.19,0,0,0-3.49,11.25,33.61,33.61,0,0,0-1,9.42Q340.17,209.34,342.44,210.38Z"/><path d="M472.4,163.11a112.83,112.83,0,0,1-10.29,16.14,57.5,57.5,0,0,1-12.91,12.3q-5.06,3.49-9.07,3.66a8.81,8.81,0,0,1-6.54-2.09,10.68,10.68,0,0,1-3.14-6.8,22.65,22.65,0,0,1,1.48-10.47,37.92,37.92,0,0,0-8.55,6.63q-5.06,4.89-10.29,11t-9.86,12.39q-4.62,6.28-7.41,10.64a23.35,23.35,0,0,1-5,6.19q-2.18,1.66-3.49,1.22t-1.48-2.79a18,18,0,0,1,.87-6q5.76-19.19,10-32.27t7.06-21.46q3.14-9.59,5.58-15.53-1.4,2.27-3.31,5.06-1.57,2.44-3.58,5.5t-4.27,6.72a9.83,9.83,0,0,1-3.84,4c-1.28.58-2.29.58-3.05,0a3.75,3.75,0,0,1-1.13-3.14,10.89,10.89,0,0,1,1.92-5.41l4-6.54q2.09-3.4,4.54-7.5t5.67-9q3.23-4.88,7.59-11,4.36-5.93,8.9-8.2t7.76-1.66a5.88,5.88,0,0,1,4.54,3.58q1.31,3-1,7.33-3.14,6.11-6.63,13.52t-7,15.09q-3.49,7.68-6.72,15t-5.76,13.17q-2.53,5.85-4.1,9.59t-1.74,4.27q.17-.52,3.05-5.06t7.59-11q4.71-6.45,10.9-13.87a145.59,145.59,0,0,1,13-13.69q7-6.45,12.56-8.11t8.81-.61a4.79,4.79,0,0,1,3.66,3.93q.43,2.88-2.88,5.67a52.25,52.25,0,0,0-6.89,7.24,65.54,65.54,0,0,0-6.28,9.33,45.73,45.73,0,0,0-4,9.42q-1.31,4.54-.09,7.33,2.79-.17,6.11-3.05a52.66,52.66,0,0,0,6.63-7.06,100.25,100.25,0,0,0,6.37-9.07q3-4.88,5.5-9.07a17.52,17.52,0,0,1,4.62-5.67q2.18-1.48,3.31-.7t.87,3.66A19.43,19.43,0,0,1,472.4,163.11Z"/><path d="M543.74,91.06q-6.8,2.62-10.38,2.7t-4.19-1.13q-.61-1.22,1.66-3.23a24.46,24.46,0,0,1,7.33-3.92q15.35-5.76,33.23-12t36.72-12.3q18.84-6,38.12-11.51T683.65,40q18.14-4.1,34.71-6.45a188.8,188.8,0,0,1,30-2.09,80.46,80.46,0,0,1,23.11,3.4Q781.16,38,785.7,45t1,17q-3.49,10-12.56,21.81a234.9,234.9,0,0,1-22.24,24.6q-13.17,12.82-28.09,25.29t-30,23.9q-15.09,11.43-27.91,20.5t-22.07,15q-9.25,5.93-12.21,7.33a46.84,46.84,0,0,1-10.21,3.84q-4.1.87-5.15-.09t1.31-3.58q2.36-2.62,9.51-6.8,3.49-2.09,12-7.85t19.71-14Q670,163.81,683,153.69t25.64-21q12.65-10.9,24-22.07a202.33,202.33,0,0,0,19.1-21.37q7.76-10.2,11-18.93t-.26-14.83Q759,49.37,750,46.84a79.12,79.12,0,0,0-21.72-2.44,197.49,197.49,0,0,0-28.52,2.53Q684,49.37,666.9,53.21T632.27,62q-17.53,5-33.75,10.12T568.16,82.25Q554,87.22,543.74,91.06Zm30.18,163.46q.17-1,2.27-8.29t5.41-18.67q3.31-11.42,7.41-25.73l8.37-29.22q4.27-14.92,8.46-29.48t7.5-26.34q3.31-11.78,5.58-19.71t2.62-9.68q1-4.88,4.19-5.67A7.41,7.41,0,0,1,631.92,83a14.24,14.24,0,0,1,4.88,6.45,14.52,14.52,0,0,1,.44,9.59q-.52,1.92-3.23,9.51t-6.72,18.67q-4,11.08-9,24.68T608.2,179.5q-5.15,14-10.12,27.39t-8.9,24.16q-3.93,10.73-6.46,17.79t-2.88,8.29a6.13,6.13,0,0,1-1.92,3.49,2.24,2.24,0,0,1-2.36.35,3.59,3.59,0,0,1-1.74-2.18A7.14,7.14,0,0,1,573.92,254.52Z"/><path d="M779.94,174.62a65.67,65.67,0,0,1-1.48,7.59q-1.14,4.62-2.44,9.07t-2.36,8.11a23.59,23.59,0,0,0-1,4.71q1.22,0,4-4.1t6.63-10.55q3.83-6.45,8.55-14.57t9.77-16.31q2.62-4.19,4.8-5.58t3.31-.61q1.13.78.87,3.58t-2.88,7.15q-5.06,8.73-9.86,16.83t-9,14.83q-4.19,6.72-7.59,11.43a47.76,47.76,0,0,1-5.67,6.8q-4.19,3.66-7.59,2.18t-3.92-7.41a28.18,28.18,0,0,1-.26-5.32q.08-3.23.44-6.54a96.1,96.1,0,0,1-6.11,11.6,61.83,61.83,0,0,1-7.5,9.94,31.16,31.16,0,0,1-8.2,6.45,10.94,10.94,0,0,1-8.37,1q-3.83-1.22-4.8-7a43.37,43.37,0,0,1,.44-14,109.65,109.65,0,0,1,4.88-18.14,138.43,138.43,0,0,1,8.55-19.28,100,100,0,0,1,11.6-17.18,55.45,55.45,0,0,1,13.87-12.12,22.12,22.12,0,0,1,8.55-3.23,15.17,15.17,0,0,1,6.63.52,9.46,9.46,0,0,1,6.37,6.8,5,5,0,0,1-.52,3.66,4.73,4.73,0,0,1-3.23,2.18,39.73,39.73,0,0,0-16.22,7.85,77.84,77.84,0,0,0-13.52,13.78,109.32,109.32,0,0,0-10.47,16.48,141,141,0,0,0-7.15,16,63.63,63.63,0,0,0-3.4,12.39q-.69,5,.7,5.5,1.75.52,4.45-1.74a37.52,37.52,0,0,0,5.76-6.37,100.23,100.23,0,0,0,6.19-9.51,122.65,122.65,0,0,0,5.67-11,104.29,104.29,0,0,0,4.27-11,43.92,43.92,0,0,0,2.09-9.42,4.91,4.91,0,0,1,2.79-4.45,8.17,8.17,0,0,1,5.5-.7,9.73,9.73,0,0,1,5.15,3.05Q780.46,170.44,779.94,174.62Z"/><path d="M881.81,163.11a112.83,112.83,0,0,1-10.29,16.14,57.5,57.5,0,0,1-12.91,12.3q-5.06,3.49-9.07,3.66a8.81,8.81,0,0,1-6.54-2.09,10.68,10.68,0,0,1-3.14-6.8,22.65,22.65,0,0,1,1.48-10.47,37.92,37.92,0,0,0-8.55,6.63q-5.06,4.89-10.29,11t-9.86,12.39q-4.62,6.28-7.41,10.64a23.35,23.35,0,0,1-5,6.19q-2.18,1.66-3.49,1.22t-1.48-2.79a18,18,0,0,1,.87-6q5.76-19.19,10-32.27t7.06-21.46q3.14-9.59,5.58-15.53-1.4,2.27-3.31,5.06-1.57,2.44-3.58,5.5t-4.27,6.72a9.83,9.83,0,0,1-3.84,4c-1.28.58-2.29.58-3.05,0a3.75,3.75,0,0,1-1.13-3.14,10.89,10.89,0,0,1,1.92-5.41l4-6.54q2.09-3.4,4.54-7.5t5.67-9q3.23-4.88,7.59-11,4.36-5.93,8.9-8.2T840,114.7a5.88,5.88,0,0,1,4.54,3.58q1.31,3-1,7.33-3.14,6.11-6.63,13.52t-7,15.09q-3.49,7.68-6.72,15t-5.76,13.17q-2.53,5.85-4.1,9.59t-1.74,4.27q.17-.52,3.05-5.06t7.59-11q4.71-6.45,10.9-13.87a145.59,145.59,0,0,1,13-13.69q7-6.45,12.56-8.11t8.81-.61a4.79,4.79,0,0,1,3.66,3.93q.43,2.88-2.88,5.67a52.25,52.25,0,0,0-6.89,7.24,65.54,65.54,0,0,0-6.28,9.33,45.73,45.73,0,0,0-4,9.42q-1.31,4.54-.09,7.33,2.79-.17,6.11-3.05a52.66,52.66,0,0,0,6.63-7.06,100.25,100.25,0,0,0,6.37-9.07q3-4.88,5.5-9.07a17.52,17.52,0,0,1,4.62-5.67q2.18-1.48,3.31-.7t.87,3.66A19.43,19.43,0,0,1,881.81,163.11Z"/><path d="M889.66,159.44a34.66,34.66,0,0,0-.35,10.9,56,56,0,0,0,2.27,9.94q1.57,4.8,3.49,9.42a94.61,94.61,0,0,1,3.31,9.33q5.58-6.63,13.52-17.18a227.22,227.22,0,0,0,15.26-23.29,17.52,17.52,0,0,1,4.62-5.67q2.18-1.48,3.4-.7t1,3.66a18.32,18.32,0,0,1-2.88,7.24q-10.82,18.49-19.19,29.13a189.26,189.26,0,0,1-13.78,16A27.61,27.61,0,0,1,899,218.58a35.9,35.9,0,0,1-6.37,11.16,49.38,49.38,0,0,1-11,10.55q-5.23,3.4-8.81,3.4a5,5,0,0,1-5-3.14q-1.39-3.14.17-8.9a26.34,26.34,0,0,1,5-8.63,91.49,91.49,0,0,1,7.76-8.46,109.7,109.7,0,0,1,10.29-8.72q.69-3-1.4-7.5t-4.88-9.86q-2.79-5.32-5.5-11a33.24,33.24,0,0,1-3.23-11.25q-1.22-10.29,2.09-16.92T886,140q4.54-2.7,8.55-1.48t4.36,6.45a11.69,11.69,0,0,1-1.13,5.93,17.28,17.28,0,0,1-3.23,4.54A23.65,23.65,0,0,1,889.66,159.44Z"/><path d="M926.29,225.91q2.44.87,6.45-1.48a50.5,50.5,0,0,0,8.81-6.89,144.21,144.21,0,0,0,10.38-11.08q5.58-6.54,11.25-14.3t11.16-16.31q5.49-8.55,10.38-17.27,2.26-4.19,4.54-5.67t3.4-.7q1.13.79,1,3.66t-2.79,7.24q-8.37,14.13-17.1,27.3a240,240,0,0,1-17.36,23.29,91.48,91.48,0,0,1-16.92,15.88q-8.29,5.76-15.79,4.88-5.06-.52-7.24-6.45t-2.09-15a117.66,117.66,0,0,1,2.09-20,158.19,158.19,0,0,1,5.5-21.37A126.52,126.52,0,0,1,930,152.47q4.62-8.72,9.86-13.26a19.46,19.46,0,0,1,8.2-4.71,9.57,9.57,0,0,1,6.89.79,12.21,12.21,0,0,1,5,5.5,26.62,26.62,0,0,1,2.44,9.42,53,53,0,0,1-1.31,16.57,65.83,65.83,0,0,1-5.93,16.14,47,47,0,0,1-9.33,12.47q-5.41,5.06-11.51,5.41-4.89.18-7.5-2.62a102.69,102.69,0,0,0-2.18,10.12,78.31,78.31,0,0,0-1,8.64,21.18,21.18,0,0,0,.44,6.11Q924.73,225.38,926.29,225.91Zm21.63-70.65a23,23,0,0,0-5.32,5.32,57.83,57.83,0,0,0-5.15,8.29,106.07,106.07,0,0,0-4.62,10.29q-2.18,5.58-3.93,11.16a6.08,6.08,0,0,0,7.59.61,20.37,20.37,0,0,0,7.24-7.85,41.25,41.25,0,0,0,4.54-13A35.43,35.43,0,0,0,947.93,155.26Z"/><path d="M1044.91,163.11q-5.41,7.85-11.34,15.79t-11.95,15.18q-6,7.24-12,13.52t-11.34,11.16a36.49,36.49,0,0,1-9.07,6.63q-3.84,1.74-6,1t-2.62-3.92a19.22,19.22,0,0,1,1-7.85q1.92-7,5.06-17.44t6.54-21.54q3.4-11.08,6.63-21.11t5.67-16.14q-2.44,4-5.84,10.21t-7.76,14a22.23,22.23,0,0,1-5.23,6.8q-2.79,2.27-4.36,1.92T981,167.82q.26-3.14,3.75-9.25,2.44-4.19,6.72-12T1001,129q5.23-9.68,10.9-20.24t10.9-20.32q5.23-9.77,9.59-17.88l6.8-12.65a20.32,20.32,0,0,1,6.37-7.24,13.15,13.15,0,0,1,7.33-2.7,5.79,5.79,0,0,1,5.23,3.05q1.83,3.05.35,9.59T1051,77.72q-5.93,10.56-18.14,25.56-2.27,5.06-5.58,13.43t-7.15,18.58q-3.84,10.2-7.94,21.37t-7.94,21.81q-3.84,10.64-7.15,19.89t-5.41,15.53q9.24-9.77,18-19.36,3.66-4.19,7.68-8.72t7.85-9.16q3.83-4.62,7.33-9.25t6.28-8.81a16.43,16.43,0,0,1,5.06-5.41q2.44-1.39,3.58-.61t.7,3.58A18.87,18.87,0,0,1,1044.91,163.11Z"/><path d="M1099,163.11q-5.41,7.85-11.34,15.79t-11.95,15.18q-6,7.24-12,13.52t-11.34,11.16a36.49,36.49,0,0,1-9.07,6.63q-3.84,1.74-6,1t-2.62-3.92a19.22,19.22,0,0,1,1-7.85q1.92-7,5.06-17.44t6.54-21.54q3.4-11.08,6.63-21.11t5.67-16.14q-2.44,4-5.84,10.21t-7.76,14a22.23,22.23,0,0,1-5.23,6.8q-2.79,2.27-4.36,1.92t-1.31-3.49q.26-3.14,3.75-9.25,2.44-4.19,6.72-12T1055,129q5.23-9.68,10.9-20.24t10.9-20.32q5.23-9.77,9.59-17.88l6.8-12.65a20.32,20.32,0,0,1,6.37-7.24,13.15,13.15,0,0,1,7.33-2.7,5.79,5.79,0,0,1,5.23,3.05q1.83,3.05.35,9.59t-7.41,17.1q-5.93,10.56-18.14,25.56-2.27,5.06-5.58,13.43t-7.15,18.58q-3.84,10.2-7.94,21.37t-7.94,21.81q-3.84,10.64-7.15,19.89t-5.41,15.53q9.24-9.77,18-19.36,3.66-4.19,7.68-8.72t7.85-9.16q3.83-4.62,7.33-9.25t6.28-8.81a16.43,16.43,0,0,1,5.06-5.41q2.44-1.39,3.58-.61t.7,3.58A18.87,18.87,0,0,1,1099,163.11Z"/></g></g></svg>