<svg xmlns="http://www.w3.org/2000/svg" xmlns:xlink="http://www.w3.org/1999/xlink" viewBox="0 0 1113.17 332.78"><defs><style>.cls-1{fill:url(#linear-gradient);}.cls-2{fill:url(#linear-gradient-2);}.cls-3{fill:url(#linear-gradient-3);}.cls-4{fill:url(#linear-gradient-4);}.cls-5{fill:url(#linear-gradient-5);}.cls-6{fill:url(#linear-gradient-6);}.cls-7{fill:url(#linear-gradient-7);}.cls-8{fill:url(#linear-gradient-8);}.cls-9{fill:url(#linear-gradient-9);}.cls-10{fill:url(#linear-gradient-10);}.cls-11{fill:url(#linear-gradient-11);}.cls-12{fill:url(#linear-gradient-12);}.cls-13{fill:url(#linear-gradient-13);}</style><linearGradient id="linear-gradient" x1="219.64" y1="299.47" x2="219.64" gradientUnits="userSpaceOnUse"><stop offset="0" stop-color="#f0f"/><stop offset="0.2" stop-color="#ff01fc"/><stop offset="0.34" stop-color="#fe05f3"/><stop offset="0.46" stop-color="#fd0be3"/><stop offset="0.57" stop-color="#fc14cd"/><stop offset="0.68" stop-color="#fa20b1"/><stop offset="0.78" stop-color="#f82e8e"/><stop offset="0.87" stop-color="#f53f65"/><stop offset="0.96" stop-color="#f25336"/><stop offset="0.99" stop-color="#f15a24"/></linearGradient><linearGradient id="linear-gradient-2" x1="189.2" y1="225.3" x2="189.2" y2="133.75" xlink:href="#linear-gradient"/><linearGradient id="linear-gradient-3" x1="251.96" y1="332.78" x2="251.96" y2="136.48" xlink:href="#linear-gradient"/><linearGradient id="linear-gradient-4" x1="329.03" y1="226.59" x2="329.03" y2="47.97" xlink:href="#linear-gradient"/><linearGradient id="linear-gradient-5" x1="355.99" y1="218.93" x2="355.99" y2="144.11" xlink:href="#linear-gradient"/><linearGradient id="linear-gradient-6" x1="430.5" y1="223.99" x2="430.5" y2="114.57" xlink:href="#linear-gradient"/><linearGradient id="linear-gradient-7" x1="658.65" y1="261.17" x2="658.65" y2="31.46" xlink:href="#linear-gradient"/><linearGradient id="linear-gradient-8" x1="769.74" y1="225.3" x2="769.74" y2="133.75" xlink:href="#linear-gradient"/><linearGradient id="linear-gradient-9" x1="839.91" y1="223.99" x2="839.91" y2="114.57" xlink:href="#linear-gradient"/><linearGradient id="linear-gradient-10" x1="901.7" y1="243.7" x2="901.7" y2="138.13" xlink:href="#linear-gradient"/><linearGradient id="linear-gradient-11" x1="954" y1="234.57" x2="954" y2="134.2" xlink:href="#linear-gradient"/><linearGradient id="linear-gradient-12" x1="1019.81" y1="226.59" x2="1019.81" y2="47.97" xlink:href="#linear-gradient"/><linearGradient id="linear-gradient-13" x1="1073.89" y1="226.59" x2="1073.89" y2="47.97" xlink:href="#linear-gradient"/></defs><title>sunset-sig</title><g id="Layer_2" data-name="Layer 2"><g id="Layer_1-2" data-name="Layer 1"><path class="cls-1" d="M91.07,290.63q2.09-8.55,5.32-21.72t7.41-29.48Q108,223.11,113,204.28t10.64-39.16q5.67-20.32,12-41.34t13.17-41.43q-39.08,2.79-73.88,6.28T11.7,97.69q-5.59,1-8.55.44T0,96q-.18-1.48,2.44-3.4t8.37-3.31q10.11-2.44,24.77-4.54t32.79-4.1q18.14-2,39.34-3.92l44.22-4q6.28-18.32,12.91-35.41T178.47,4.88Q180.73,0,184,0a7.08,7.08,0,0,1,5.67,3.14,17.62,17.62,0,0,1,3.23,8.29A17.07,17.07,0,0,1,191,21.81q-5.76,11.51-11.25,23.9t-10.9,25.47q31.92-3,65.77-6.54t67.25-8.37q33.4-4.8,65.16-11.08T426.53,30.7q7.33-2.09,10.38.44A6.62,6.62,0,0,1,439.09,38q-.87,4.36-5.5,8.81T420.77,53q-30.18,6.28-62.28,10.73t-64.72,7.59q-32.62,3.14-65.24,5.41t-63.67,4.36q-11.17,28.61-21.2,58.35T125,197.39q-8.64,28.17-15.87,53.21t-13,43.87a10.55,10.55,0,0,1-2.27,4.27q-1.22,1.13-2.09.52t-1.22-2.88A15,15,0,0,1,91.07,290.63Z"/><path class="cls-2" d="M199.4,174.62a65.68,65.68,0,0,1-1.48,7.59q-1.14,4.62-2.44,9.07t-2.36,8.11a23.59,23.59,0,0,0-1,4.71q1.22,0,4-4.1t6.63-10.55q3.83-6.45,8.55-14.57T221,158.57q2.62-4.19,4.8-5.58t3.31-.61q1.13.79.87,3.58t-2.88,7.15q-5.06,8.72-9.86,16.83t-9,14.83q-4.19,6.72-7.59,11.43A47.66,47.66,0,0,1,195,213q-4.19,3.67-7.59,2.18t-3.92-7.41a28.18,28.18,0,0,1-.26-5.32q.08-3.23.44-6.54a96.15,96.15,0,0,1-6.11,11.6,61.87,61.87,0,0,1-7.5,9.94,31.17,31.17,0,0,1-8.2,6.45,10.94,10.94,0,0,1-8.37,1q-3.83-1.22-4.8-7a43.37,43.37,0,0,1,.44-14A109.69,109.69,0,0,1,154,185.7a138.39,138.39,0,0,1,8.55-19.28,100,100,0,0,1,11.6-17.18,55.46,55.46,0,0,1,13.87-12.12,22.12,22.12,0,0,1,8.55-3.23,15.19,15.19,0,0,1,6.63.52,9.46,9.46,0,0,1,6.37,6.8,5,5,0,0,1-.52,3.66,4.73,4.73,0,0,1-3.23,2.18,39.73,39.73,0,0,0-16.22,7.85,77.84,77.84,0,0,0-13.52,13.78,109.34,109.34,0,0,0-10.47,16.48,141,141,0,0,0-7.15,16,63.63,63.63,0,0,0-3.4,12.39q-.69,5,.7,5.5,1.75.52,4.45-1.75A37.48,37.48,0,0,0,166,211a100,100,0,0,0,6.19-9.51,122.59,122.59,0,0,0,5.67-11,104.29,104.29,0,0,0,4.27-11,43.91,43.91,0,0,0,2.09-9.42,4.91,4.91,0,0,1,2.79-4.45,8.16,8.16,0,0,1,5.5-.7,9.73,9.73,0,0,1,5.15,3.05Q199.92,170.44,199.4,174.62Z"/><path class="cls-3" d="M247.19,148.28q-3.14,4.89-6.54,10.82T234,171.31q-3.23,6.28-5.93,12.47t-4.54,11.6A64.35,64.35,0,0,0,221,204.8q-.69,4,.35,5.93l42.57-59.66a28.79,28.79,0,0,1,8-10.64q4.71-3.67,8.46-3.93a5.4,5.4,0,0,1,5.5,2.79q1.74,3.06-.87,9.33-1.22,2.62-3.49,7.94t-5.23,12q-3,6.72-6.37,14.48t-6.72,15.44q-8,18-17.27,39.08,9.24-15.18,18-29.83,3.66-6.28,7.76-12.91l8-13q3.92-6.36,7.59-12.38l6.63-10.9q2.62-4.19,4.8-5.58t3.4-.61q1.22.79.87,3.58a19.82,19.82,0,0,1-3,7.15q-11.17,19-20.5,34.1t-17.18,28q-7.85,12.91-14.48,24.16t-12.73,22.42q-6.11,11.16-11.77,22.94T212,320.28a46.94,46.94,0,0,1-4.88,9.16q-2.26,3-3.84,3.31t-2.18-2.09q-.61-2.36.44-7.24.35-1.92,3.31-10.47t7.5-21.28q4.54-12.74,10.12-28.17t11.34-31.14q5.76-15.7,11.17-30.27t9.42-25.56q-2.44,3.84-5.41,8.2t-6,8.81q-3.05,4.45-6.19,8.81t-6.11,8q-5.06,6.28-8.2,9.94t-5.58,2.27q-3-1.57-4.45-7.5a54.73,54.73,0,0,1-1.22-14.65A106.46,106.46,0,0,1,213.79,181a135.32,135.32,0,0,1,6.89-21.89,45.11,45.11,0,0,1,6.63-11.77,27.32,27.32,0,0,1,7.15-6.46,14.1,14.1,0,0,1,6.54-2.09,8.24,8.24,0,0,1,5,1.22,5.42,5.42,0,0,1,2.36,3.58A6.36,6.36,0,0,1,247.19,148.28Z"/><path class="cls-4" d="M354.13,163.11q-5.41,7.85-11.34,15.79t-11.95,15.18q-6,7.24-12,13.52t-11.34,11.16a36.49,36.49,0,0,1-9.07,6.63q-3.84,1.74-6,1t-2.62-3.92a19.22,19.22,0,0,1,1-7.85q1.92-7,5.06-17.44t6.54-21.54q3.4-11.08,6.63-21.11t5.67-16.14q-2.44,4-5.84,10.21t-7.76,14a22.22,22.22,0,0,1-5.23,6.8q-2.79,2.27-4.36,1.92t-1.31-3.49q.26-3.14,3.75-9.25,2.44-4.19,6.72-12T310.17,129q5.23-9.68,10.9-20.24T332,88.44q5.23-9.77,9.59-17.88l6.8-12.65a20.32,20.32,0,0,1,6.37-7.24,13.15,13.15,0,0,1,7.33-2.7A5.79,5.79,0,0,1,367.3,51q1.83,3.06.35,9.6t-7.41,17.09q-5.93,10.56-18.14,25.56-2.27,5.06-5.58,13.43t-7.15,18.58q-3.84,10.2-7.94,21.37t-7.94,21.81q-3.84,10.64-7.15,19.89t-5.41,15.53q9.24-9.77,18-19.36,3.66-4.19,7.68-8.72t7.85-9.16q3.83-4.62,7.33-9.25t6.28-8.81a16.41,16.41,0,0,1,5.06-5.41q2.44-1.39,3.58-.61t.7,3.58A18.87,18.87,0,0,1,354.13,163.11Z"/><path class="cls-5" d="M371.92,145a10.24,10.24,0,0,1,6,6.19,25.66,25.66,0,0,1,1.31,10.47,58.31,58.31,0,0,1-2.44,13.08,102.56,102.56,0,0,1-5.23,13.87,97.64,97.64,0,0,1-7.24,13A67.31,67.31,0,0,1,356,212a26.2,26.2,0,0,1-8.64,6,9.64,9.64,0,0,1-8,0q-4.88-2.44-6.11-9.42a44.89,44.89,0,0,1,.44-15.87,93.12,93.12,0,0,1,5.58-18.4,81.37,81.37,0,0,1,9.25-16.83,40.89,40.89,0,0,1,11.43-11.08Q366,142.7,371.92,145Zm-29.48,65.42q2.27,1,5.5-1.57a31.81,31.81,0,0,0,6.28-7.24A71.46,71.46,0,0,0,359.88,191a62.2,62.2,0,0,0,3.84-11.34,27.71,27.71,0,0,0,.7-9.51q-.52-4.1-3.66-5.32-2.62-.87-5.58,1.83a32.13,32.13,0,0,0-5.76,7.41,71.55,71.55,0,0,0-5.06,10.55,80.19,80.19,0,0,0-3.49,11.25,33.61,33.61,0,0,0-1,9.42Q340.17,209.34,342.44,210.38Z"/><path class="cls-6" d="M472.4,163.11a112.85,112.85,0,0,1-10.29,16.14,57.51,57.51,0,0,1-12.91,12.3q-5.06,3.49-9.07,3.66a8.8,8.8,0,0,1-6.54-2.09,10.67,10.67,0,0,1-3.14-6.8,22.65,22.65,0,0,1,1.48-10.47,38,38,0,0,0-8.55,6.63q-5.06,4.89-10.29,11t-9.86,12.38q-4.62,6.28-7.41,10.64a23.35,23.35,0,0,1-5,6.19q-2.18,1.66-3.49,1.22t-1.48-2.79a18,18,0,0,1,.87-6q5.76-19.19,10-32.27t7.06-21.46q3.14-9.59,5.58-15.53-1.4,2.27-3.31,5.06-1.57,2.44-3.58,5.49t-4.27,6.72a9.83,9.83,0,0,1-3.84,4c-1.28.58-2.29.58-3.05,0a3.75,3.75,0,0,1-1.13-3.14,10.88,10.88,0,0,1,1.92-5.41l4-6.54q2.09-3.4,4.54-7.5t5.67-9q3.23-4.88,7.59-11,4.36-5.93,8.9-8.2t7.76-1.66a5.88,5.88,0,0,1,4.54,3.58q1.31,3-1,7.33-3.14,6.11-6.63,13.52t-7,15.09q-3.49,7.68-6.72,15t-5.76,13.17q-2.53,5.85-4.1,9.6t-1.74,4.27q.17-.52,3.05-5.06t7.59-11q4.71-6.45,10.9-13.87a145.65,145.65,0,0,1,13-13.69q7-6.45,12.56-8.11t8.81-.61a4.78,4.78,0,0,1,3.66,3.93q.43,2.88-2.88,5.67a52.31,52.31,0,0,0-6.89,7.24,65.51,65.51,0,0,0-6.28,9.33,45.72,45.72,0,0,0-4,9.42q-1.31,4.54-.09,7.33,2.79-.17,6.11-3.05a52.73,52.73,0,0,0,6.63-7.07,100.18,100.18,0,0,0,6.37-9.07q3-4.88,5.5-9.07a17.51,17.51,0,0,1,4.62-5.67q2.18-1.48,3.31-.7t.87,3.66A19.43,19.43,0,0,1,472.4,163.11Z"/><path class="cls-7" d="M543.74,91.06q-6.8,2.62-10.38,2.71t-4.19-1.13q-.61-1.22,1.66-3.23a24.46,24.46,0,0,1,7.33-3.93q15.35-5.76,33.23-12t36.72-12.3q18.84-6,38.12-11.51T683.65,40q18.14-4.1,34.71-6.45a188.75,188.75,0,0,1,30-2.09,80.44,80.44,0,0,1,23.11,3.4Q781.16,38,785.7,45t1,17q-3.49,10-12.56,21.81a234.85,234.85,0,0,1-22.24,24.6q-13.17,12.82-28.09,25.29t-30,23.9q-15.09,11.43-27.91,20.5t-22.07,15q-9.25,5.93-12.21,7.33a46.84,46.84,0,0,1-10.21,3.84q-4.1.87-5.15-.09t1.31-3.58q2.36-2.62,9.51-6.8,3.49-2.09,12-7.85t19.71-14Q670,163.81,683,153.69t25.64-21q12.65-10.9,24-22.07a202.28,202.28,0,0,0,19.1-21.37q7.76-10.21,11-18.93t-.26-14.83Q759,49.37,750,46.84a79.09,79.09,0,0,0-21.72-2.44,197.56,197.56,0,0,0-28.52,2.53Q684,49.37,666.9,53.21T632.27,62q-17.53,5-33.75,10.12T568.16,82.25Q554,87.22,543.74,91.06Zm30.18,163.46q.17-1,2.27-8.29t5.41-18.67q3.31-11.42,7.41-25.73l8.37-29.22q4.27-14.92,8.46-29.48t7.5-26.34q3.31-11.78,5.58-19.71t2.62-9.68q1-4.88,4.19-5.67A7.41,7.41,0,0,1,631.92,83a14.24,14.24,0,0,1,4.88,6.45,14.52,14.52,0,0,1,.44,9.59q-.52,1.92-3.23,9.51t-6.72,18.67q-4,11.08-9,24.68T608.2,179.5q-5.15,14-10.12,27.39t-8.9,24.16q-3.93,10.73-6.46,17.79t-2.88,8.29a6.13,6.13,0,0,1-1.92,3.49,2.24,2.24,0,0,1-2.36.35,3.59,3.59,0,0,1-1.74-2.18A7.14,7.14,0,0,1,573.92,254.52Z"/><path class="cls-8" d="M779.94,174.62a65.68,65.68,0,0,1-1.48,7.59q-1.14,4.62-2.44,9.07t-2.36,8.11a23.59,23.59,0,0,0-1,4.71q1.22,0,4-4.1t6.63-10.55q3.83-6.45,8.55-14.57t9.77-16.31q2.62-4.19,4.8-5.58t3.31-.61q1.13.79.87,3.58t-2.88,7.15q-5.06,8.72-9.86,16.83t-9,14.83q-4.19,6.72-7.59,11.43a47.66,47.66,0,0,1-5.67,6.8q-4.19,3.67-7.59,2.18t-3.92-7.41a28.18,28.18,0,0,1-.26-5.32q.08-3.23.44-6.54a96.15,96.15,0,0,1-6.11,11.6,61.87,61.87,0,0,1-7.5,9.94,31.17,31.17,0,0,1-8.2,6.45,10.94,10.94,0,0,1-8.37,1q-3.83-1.22-4.8-7a43.37,43.37,0,0,1,.44-14,109.69,109.69,0,0,1,4.88-18.14,138.39,138.39,0,0,1,8.55-19.28,100,100,0,0,1,11.6-17.18,55.46,55.46,0,0,1,13.87-12.12,22.12,22.12,0,0,1,8.55-3.23,15.19,15.19,0,0,1,6.63.52,9.46,9.46,0,0,1,6.37,6.8,5,5,0,0,1-.52,3.66,4.73,4.73,0,0,1-3.23,2.18,39.73,39.73,0,0,0-16.22,7.85,77.84,77.84,0,0,0-13.52,13.78,109.34,109.34,0,0,0-10.47,16.48,141,141,0,0,0-7.15,16,63.63,63.63,0,0,0-3.4,12.39q-.69,5,.7,5.5,1.75.52,4.45-1.75a37.48,37.48,0,0,0,5.76-6.37,100,100,0,0,0,6.19-9.51,122.59,122.59,0,0,0,5.67-11,104.29,104.29,0,0,0,4.27-11,43.91,43.91,0,0,0,2.09-9.42,4.91,4.91,0,0,1,2.79-4.45,8.16,8.16,0,0,1,5.5-.7,9.73,9.73,0,0,1,5.15,3.05Q780.46,170.44,779.94,174.62Z"/><path class="cls-9" d="M881.81,163.11a112.85,112.85,0,0,1-10.29,16.14,57.51,57.51,0,0,1-12.91,12.3q-5.06,3.49-9.07,3.66a8.8,8.8,0,0,1-6.54-2.09,10.67,10.67,0,0,1-3.14-6.8,22.65,22.65,0,0,1,1.48-10.47,38,38,0,0,0-8.55,6.63q-5.06,4.89-10.29,11t-9.86,12.38q-4.62,6.28-7.41,10.64a23.35,23.35,0,0,1-5,6.19q-2.18,1.66-3.49,1.22t-1.48-2.79a18,18,0,0,1,.87-6q5.76-19.19,10-32.27t7.06-21.46q3.14-9.59,5.58-15.53-1.4,2.27-3.31,5.06-1.57,2.44-3.58,5.49t-4.27,6.72a9.83,9.83,0,0,1-3.84,4c-1.28.58-2.29.58-3.05,0a3.75,3.75,0,0,1-1.13-3.14,10.88,10.88,0,0,1,1.92-5.41l4-6.54q2.09-3.4,4.54-7.5t5.67-9q3.23-4.88,7.59-11,4.36-5.93,8.9-8.2T840,114.7a5.88,5.88,0,0,1,4.54,3.58q1.31,3-1,7.33-3.14,6.11-6.63,13.52t-7,15.09q-3.49,7.68-6.72,15t-5.76,13.17q-2.53,5.85-4.1,9.6t-1.74,4.27q.17-.52,3.05-5.06t7.59-11q4.71-6.45,10.9-13.87a145.65,145.65,0,0,1,13-13.69q7-6.45,12.56-8.11t8.81-.61a4.78,4.78,0,0,1,3.66,3.93q.43,2.88-2.88,5.67a52.31,52.31,0,0,0-6.89,7.24,65.51,65.51,0,0,0-6.28,9.33,45.72,45.72,0,0,0-4,9.42q-1.31,4.54-.09,7.33,2.79-.17,6.11-3.05a52.73,52.73,0,0,0,6.63-7.07,100.18,100.18,0,0,0,6.37-9.07q3-4.88,5.5-9.07a17.51,17.51,0,0,1,4.62-5.67q2.18-1.48,3.31-.7t.87,3.66A19.43,19.43,0,0,1,881.81,163.11Z"/><path class="cls-10" d="M889.66,159.44a34.67,34.67,0,0,0-.35,10.9,56,56,0,0,0,2.27,9.94q1.57,4.8,3.49,9.42a94.57,94.57,0,0,1,3.31,9.33q5.58-6.63,13.52-17.18a227.15,227.15,0,0,0,15.26-23.29,17.51,17.51,0,0,1,4.62-5.67q2.18-1.48,3.4-.7t1,3.66a18.33,18.33,0,0,1-2.88,7.24q-10.82,18.49-19.19,29.13a189.42,189.42,0,0,1-13.78,16A27.61,27.61,0,0,1,899,218.58a35.9,35.9,0,0,1-6.37,11.16,49.38,49.38,0,0,1-11,10.55q-5.23,3.4-8.81,3.4a5,5,0,0,1-5-3.14q-1.39-3.14.17-8.9a26.34,26.34,0,0,1,5-8.63,91.49,91.49,0,0,1,7.76-8.46,109.7,109.7,0,0,1,10.29-8.72q.69-3-1.4-7.5t-4.88-9.86q-2.79-5.32-5.5-11a33.24,33.24,0,0,1-3.23-11.25q-1.22-10.29,2.09-16.92T886,140q4.54-2.7,8.55-1.48t4.36,6.46a11.69,11.69,0,0,1-1.13,5.93,17.29,17.29,0,0,1-3.23,4.54A23.62,23.62,0,0,1,889.66,159.44Z"/><path class="cls-11" d="M926.29,225.91q2.44.87,6.45-1.48a50.5,50.5,0,0,0,8.81-6.89,144,144,0,0,0,10.38-11.08q5.58-6.54,11.25-14.3t11.16-16.31q5.49-8.55,10.38-17.27,2.26-4.19,4.54-5.67t3.4-.7q1.13.79,1,3.66t-2.79,7.24q-8.37,14.13-17.1,27.3a240.08,240.08,0,0,1-17.36,23.29,91.48,91.48,0,0,1-16.92,15.88q-8.29,5.76-15.79,4.88-5.06-.52-7.24-6.45t-2.09-15a117.66,117.66,0,0,1,2.09-20,158.22,158.22,0,0,1,5.5-21.37A126.58,126.58,0,0,1,930,152.47q4.62-8.72,9.86-13.26a19.47,19.47,0,0,1,8.2-4.71,9.57,9.57,0,0,1,6.89.79,12.2,12.2,0,0,1,5,5.5,26.62,26.62,0,0,1,2.44,9.42,53,53,0,0,1-1.31,16.57,65.81,65.81,0,0,1-5.93,16.14,46.93,46.93,0,0,1-9.33,12.47q-5.41,5.06-11.51,5.41-4.89.18-7.5-2.62a102.7,102.7,0,0,0-2.18,10.12,78.28,78.28,0,0,0-1,8.63,21.18,21.18,0,0,0,.44,6.11Q924.73,225.38,926.29,225.91Zm21.63-70.65a22.93,22.93,0,0,0-5.32,5.32,57.82,57.82,0,0,0-5.15,8.29,106.13,106.13,0,0,0-4.62,10.29q-2.18,5.58-3.93,11.16a6.08,6.08,0,0,0,7.59.61,20.38,20.38,0,0,0,7.24-7.85,41.26,41.26,0,0,0,4.54-13A35.42,35.42,0,0,0,947.93,155.26Z"/><path class="cls-12" d="M1044.91,163.11q-5.41,7.85-11.34,15.79t-11.95,15.18q-6,7.24-12,13.52t-11.34,11.16a36.49,36.49,0,0,1-9.07,6.63q-3.84,1.74-6,1t-2.62-3.92a19.22,19.22,0,0,1,1-7.85q1.92-7,5.06-17.44t6.54-21.54q3.4-11.08,6.63-21.11t5.67-16.14q-2.44,4-5.84,10.21t-7.76,14a22.22,22.22,0,0,1-5.23,6.8q-2.79,2.27-4.36,1.92T981,167.82q.26-3.14,3.75-9.25,2.44-4.19,6.72-12T1001,129q5.23-9.68,10.9-20.24t10.9-20.32q5.23-9.77,9.59-17.88l6.8-12.65a20.32,20.32,0,0,1,6.37-7.24,13.15,13.15,0,0,1,7.33-2.7,5.79,5.79,0,0,1,5.23,3.05q1.83,3.06.35,9.6T1051,77.72q-5.93,10.56-18.14,25.56-2.27,5.06-5.58,13.43t-7.15,18.58q-3.84,10.2-7.94,21.37t-7.94,21.81q-3.84,10.64-7.15,19.89t-5.41,15.53q9.24-9.77,18-19.36,3.66-4.19,7.68-8.72t7.85-9.16q3.83-4.62,7.33-9.25t6.28-8.81a16.41,16.41,0,0,1,5.06-5.41q2.44-1.39,3.58-.61t.7,3.58A18.87,18.87,0,0,1,1044.91,163.11Z"/><path class="cls-13" d="M1099,163.11q-5.41,7.85-11.34,15.79t-11.95,15.18q-6,7.24-12,13.52t-11.34,11.16a36.49,36.49,0,0,1-9.07,6.63q-3.84,1.74-6,1t-2.62-3.92a19.22,19.22,0,0,1,1-7.85q1.92-7,5.06-17.44t6.54-21.54q3.4-11.08,6.63-21.11t5.67-16.14q-2.44,4-5.84,10.21t-7.76,14a22.22,22.22,0,0,1-5.23,6.8q-2.79,2.27-4.36,1.92t-1.31-3.49q.26-3.14,3.75-9.25,2.44-4.19,6.72-12T1055,129q5.23-9.68,10.9-20.24t10.9-20.32q5.23-9.77,9.59-17.88l6.8-12.65a20.32,20.32,0,0,1,6.37-7.24,13.15,13.15,0,0,1,7.33-2.7,5.79,5.79,0,0,1,5.23,3.05q1.83,3.06.35,9.6t-7.41,17.09q-5.93,10.56-18.14,25.56-2.27,5.06-5.58,13.43t-7.15,18.58q-3.84,10.2-7.94,21.37t-7.94,21.81q-3.84,10.64-7.15,19.89t-5.41,15.53q9.24-9.77,18-19.36,3.66-4.19,7.68-8.72t7.85-9.16q3.83-4.62,7.33-9.25t6.28-8.81a16.41,16.41,0,0,1,5.06-5.41q2.44-1.39,3.58-.61t.7,3.58A18.87,18.87,0,0,1,1099,163.11Z"/></g></g></svg>