<svg xmlns="http://www.w3.org/2000/svg" viewBox="0 0 304.97 308.87"><defs><style>.cls-1{fill:#fcb8e2;}.cls-2{font-size:165.88px;font-family:AmericanTypewriter, American Typewriter;}</style></defs><title>logo_1</title><g id="Layer_2" data-name="Layer 2"><g id="Layer_1-2" data-name="Layer 1"><path class="cls-1" d="M255.8,198a29.11,29.11,0,1,0,7.88-57.13c-.46,0-.92,0-1.38,0a104.78,104.78,0,0,0-5.55-20.62,56,56,0,1,0-78.06-65.89,106.53,106.53,0,0,0-31.39-1.46,38.48,38.48,0,1,0-52.2,20.33A105.63,105.63,0,0,0,55.53,133a29.11,29.11,0,1,0-2.87,29.3,105.26,105.26,0,0,0,4.89,27.77A47.75,47.75,0,0,0,124.46,258q2.83,1,5.73,1.74a56,56,0,0,0,104.37-28.05c0-.32,0-.64,0-1A105.65,105.65,0,0,0,255.8,198Z"/><circle class="cls-1" cx="282.65" cy="254.01" r="22.32"/><circle class="cls-1" cx="35.59" cy="61.18" r="13.51"/><circle class="cls-1" cx="30.57" cy="259.84" r="22"/><circle class="cls-1" cx="122.65" cy="295.36" r="13.51"/><text class="cls-2" transform="translate(105.02 217.1)">T</text></g></g></svg>